<svg width="13.5" xmlns="http://www.w3.org/2000/svg" height="14" fill="none"><g style="fill: rgb(0, 0, 0);"><path d="M6.145 1.671a6.074 6.074 0 0 0-1.847.548c-1.271.644-2.137 1.674-2.494 2.965l-.085.314-.009 3.179-.014 3.18.076-.049c.235-.149 4.962-2.893 4.985-2.893.013 0 1.15.66 2.526 1.466 1.376.806 2.504 1.46 2.511 1.456.026-.02 0-6.105-.026-6.29-.288-1.842-1.844-3.355-3.907-3.797-.251-.056-.47-.073-.964-.083-.35-.006-.69-.003-.752.004ZM7.159 2.84c1.886.168 3.314 1.416 3.494 3.047.039.36.049 3.953.013 3.953-.016 0-.902-.509-1.971-1.133L6.753 7.575l-1.212.706C3.38 9.546 2.867 9.84 2.837 9.84c-.019 0-.026-.783-.016-2.041.013-1.958.016-2.047.082-2.311.369-1.427 1.699-2.467 3.389-2.648.34-.037.455-.037.867 0Z" style="fill: rgb(23, 147, 209); fill-opacity: 1;" class="fills"/></g><path d="M1.944 5.255h1.605c.591 0 1.07.377 1.07.842v1.264c0 .465-.479.843-1.07.843h-.535c-.591 0-1.07-.378-1.07-.843V5.255Zm0 0c0-2.094 2.156-3.792 4.815-3.792 2.659 0 4.815 1.698 4.815 3.792m0 0v2.106c0 .465-.479.843-1.07.843h-.535c-.591 0-1.07-.378-1.07-.843V6.097c0-.465.479-.842 1.07-.842h1.605Z" style="fill: none;" class="fills"/><g stroke-linejoin="round" class="strokes"><path d="M1.944 5.255h1.605c.591 0 1.07.377 1.07.842v1.264c0 .465-.479.843-1.07.843h-.535c-.591 0-1.07-.378-1.07-.843V5.255Zm0 0c0-2.094 2.156-3.792 4.815-3.792 2.659 0 4.815 1.698 4.815 3.792m0 0v2.106c0 .465-.479.843-1.07.843h-.535c-.591 0-1.07-.378-1.07-.843V6.097c0-.465.479-.842 1.07-.842h1.605Z" style="fill: none; stroke-width: 0.5; stroke: rgb(209, 23, 106); stroke-opacity: 1;" class="stroke-shape"/></g><path d="M7.159 2.84c1.886.168 3.314 1.416 3.494 3.047.016.148.027.845.032 1.613h1.108a75.15 75.15 0 0 0-.025-1.953C11.48 3.705 9.924 2.192 7.861 1.75c-.251-.056-.47-.073-.964-.083-.35-.006-.69-.003-.752.004a6.074 6.074 0 0 0-1.847.548c-1.271.644-2.137 1.674-2.494 2.965l-.085.314L1.713 7.5h1.11c.012-1.669.018-1.762.08-2.012.369-1.427 1.699-2.467 3.389-2.648.34-.037.455-.037.867 0Z" style="fill: rgb(209, 23, 106); fill-opacity: 1;" class="fills"/><rect rx="1" ry="1" x="2" y="5" width="2.5" height="3.5" style="fill: rgb(209, 23, 106); fill-opacity: 1;" class="fills"/><rect rx="1" ry="1" x="9" y="5" width="2.5" height="3.5" style="fill: rgb(209, 23, 106); fill-opacity: 1;" class="fills"/></svg>